<svg width="10" height="11" viewBox="0 0 10 11" fill="none" xmlns="http://www.w3.org/2000/svg">
<path fill-rule="evenodd" clip-rule="evenodd" d="M6.04167 8.62408C6.60603 7.73345 7.55856 6.85477 8.56359 6.28731C8.62951 6.25009 8.69565 6.21421 8.76192 6.17976C9.01798 6.04663 9.276 5.93474 9.53052 5.84898C9.59834 5.82612 9.66592 5.80512 9.73315 5.78607C9.88718 5.74241 10 5.60563 10 5.44553C10 5.28676 9.88904 5.15061 9.73605 5.10816C9.66481 5.0884 9.59371 5.06696 9.52278 5.04386C9.26335 4.95937 9.00605 4.85265 8.75152 4.72433C8.68505 4.69082 8.61877 4.65584 8.55269 4.6194C8.33402 4.49881 8.11753 4.36221 7.90365 4.21002C7.03864 3.59799 6.31684 2.79674 5.84401 1.9601C5.79952 1.88137 5.75722 1.80232 5.71722 1.72308C5.57963 1.45052 5.46916 1.17577 5.38943 0.904052C5.37238 0.84597 5.35674 0.788026 5.34254 0.730272C5.30447 0.575452 5.16971 0.460022 5.01028 0.460022C4.85328 0.460022 4.71977 0.572113 4.68115 0.724288C4.6658 0.784747 4.64913 0.845042 4.63114 0.905199C4.54909 1.17959 4.43953 1.45112 4.30246 1.72236C4.26245 1.80153 4.2201 1.88068 4.1754 1.95987C4.07565 2.13658 3.96423 2.31348 3.84115 2.49127C3.22697 3.38226 2.38292 4.11808 1.45407 4.61475C1.38538 4.65148 1.31623 4.6869 1.24667 4.72098C0.994415 4.84456 0.736834 4.95051 0.476725 5.03718C0.404862 5.06112 0.332807 5.0836 0.260618 5.10457C0.108783 5.14867 0 5.2851 0 5.44321C0 5.60478 0.113565 5.74297 0.269272 5.7861C0.338377 5.80524 0.407567 5.82616 0.476822 5.84885C0.731557 5.93231 0.987163 6.03971 1.2426 6.17052C1.30908 6.20456 1.37554 6.24018 1.44197 6.27739C1.70871 6.42676 1.97497 6.60155 2.23958 6.80117C3.12238 7.46326 3.76053 8.21877 4.17744 8.95589C4.22274 9.03598 4.26542 9.11584 4.30552 9.19535C4.44717 9.47618 4.55662 9.75252 4.63517 10.018C4.65273 10.0774 4.66874 10.1362 4.68323 10.1944C4.7212 10.3469 4.85429 10.46 5.01145 10.46C5.17 10.46 5.30379 10.3447 5.34143 10.1907C5.35529 10.134 5.37068 10.0768 5.38761 10.019C5.46503 9.75521 5.57474 9.48083 5.71791 9.19592C5.75789 9.11637 5.80047 9.03601 5.84568 8.95482C5.90626 8.84605 5.97157 8.7358 6.04167 8.62408ZM5.00686 7.47872C5.53979 6.74106 6.2644 6.03177 7.07275 5.45962C7.06037 5.4509 7.04799 5.44215 7.03564 5.43336C6.26207 4.88576 5.56403 4.19787 5.01163 3.43477C4.4489 4.22661 3.7394 4.91472 2.94655 5.45954C3.01184 5.50614 3.07675 5.55378 3.14126 5.60243C3.89936 6.17125 4.52162 6.8116 5.00686 7.47872Z" fill="#8C8F94"/>
</svg>
