<svg width="142" height="27" viewBox="0 0 142 27" fill="none" xmlns="http://www.w3.org/2000/svg">
<rect x="19.9998" y="13.334" width="6.66608" height="6.66608" fill="#FF0B00"/>
<path d="M6.66992 0.000732422H13.336V6.66681L10.003 3.33377L6.66992 0.000732422Z" fill="white"/>
<path d="M13.3291 19.9988L6.66302 19.9988L6.66302 13.3327L9.99606 16.6657L13.3291 19.9988Z" fill="white"/>
<rect y="0.000732422" width="6.66608" height="19.9982" fill="white"/>
<path d="M13.3291 0.000732422H19.9952V13.3329L13.3291 19.999V0.000732422Z" fill="white"/>
<path d="M37.4129 6.72831L37.357 5.19297L42.5861 19.6919C42.642 19.8594 42.8377 19.999 43.0335 19.999H45.7179C45.9136 19.999 46.1094 19.8594 46.1653 19.6919L50.919 5.80711L50.891 6.67248L50.7512 12.6743V19.664C50.7512 19.8315 50.919 19.999 51.0868 19.999H54.7219C54.8897 19.999 55.0575 19.8315 55.0575 19.664L55.0575 9.77107L55.0575 0.335716C55.0575 0.168225 54.8897 0.000732422 54.7219 0.000732422H50.0242C49.8284 0.000732422 49.6327 0.140309 49.5768 0.307801L44.6833 14.3213L39.4822 0.307801C39.4262 0.140309 39.2305 0.000732422 39.0348 0.000732422H34.0014C33.8337 0.000732422 33.6659 0.168225 33.6659 0.335716V9.77107V19.664C33.6659 19.8315 33.8337 19.999 34.0014 19.999H37.2172C37.385 19.999 37.5527 19.8315 37.5527 19.664V12.6743L37.4129 6.72831Z" fill="white"/>
<path d="M71.6559 12.406C71.6559 7.8279 68.9994 4.8968 64.3016 4.8968C59.6039 4.8968 56.8915 7.91165 56.8915 12.4897C56.8915 17.0679 59.6039 19.999 64.3016 19.999C68.9994 19.999 71.6559 16.9841 71.6559 12.406ZM61.1698 12.5177C61.1698 9.27949 62.1485 7.71624 64.2737 7.68832C66.3429 7.68832 67.3496 9.25158 67.3496 12.4897C67.3496 15.7837 66.3709 17.2074 64.3016 17.2074C62.2044 17.2074 61.1698 15.7558 61.1698 12.5177Z" fill="white"/>
<path d="M77.3105 19.999C77.4783 19.999 77.646 19.8315 77.646 19.664L77.5901 13.428V12.3672C77.5901 9.2965 79.212 7.90073 80.722 7.90073C81.9803 7.90073 82.931 8.90568 82.931 10.4689V13.428L82.8471 19.664C82.8471 19.8315 83.0149 19.999 83.1827 19.999H86.7619C86.9297 19.999 87.0975 19.8315 87.0975 19.664L86.9856 13.428V10.4131C86.9856 6.89579 85.0562 4.83006 82.0083 4.83006C79.9949 4.83006 78.3451 5.72334 77.3664 6.97953L77.4223 5.50002C77.4503 5.33253 77.2825 5.16504 77.1148 5.16504H73.7312C73.5635 5.16504 73.3957 5.33253 73.3957 5.50002L73.4796 12.6463L73.3398 19.664C73.3398 19.8315 73.5075 19.999 73.6753 19.999H77.3105Z" fill="white"/>
<path d="M103.387 12.406C103.387 7.8279 100.731 4.8968 96.033 4.8968C91.3352 4.8968 88.6228 7.91165 88.6228 12.4897C88.6228 17.0679 91.3352 19.999 96.033 19.999C100.731 19.999 103.387 16.9841 103.387 12.406ZM92.9011 12.5177C92.9011 9.27949 93.8798 7.71624 96.005 7.68832C98.0742 7.68832 99.0809 9.25158 99.0809 12.4897C99.0809 15.7837 98.1022 17.2074 96.033 17.2074C93.9357 17.2074 92.9011 15.7558 92.9011 12.5177Z" fill="white"/>
<path d="M109.042 19.999C109.21 19.999 109.377 19.8315 109.377 19.664L109.377 9.86571L109.377 0.430357C109.377 0.262866 109.21 0.095373 109.042 0.095373H105.491C105.323 0.095373 105.215 0.262866 105.215 0.430357V9.99985V19.6657C105.215 19.8332 105.323 19.999 105.491 19.999H109.042Z" fill="white"/>
<path d="M126.387 12.4064C126.387 7.82832 123.731 4.89722 119.033 4.89722C114.335 4.89722 111.623 7.91207 111.623 12.4902C111.623 17.0683 114.335 19.9994 119.033 19.9994C123.731 19.9994 126.387 16.9845 126.387 12.4064ZM115.901 12.5181C115.901 9.27991 116.88 7.71666 119.005 7.68874C121.074 7.68874 122.081 9.252 122.081 12.4902C122.081 15.7842 121.102 17.2078 119.033 17.2078C116.936 17.2078 115.901 15.7563 115.901 12.5181Z" fill="white"/>
<path d="M134.222 20.4594C130.376 20.4594 128 17.5242 128 12.7441C128 7.7682 130.432 5.00073 134.222 5.00073C136.032 5.00073 137.446 5.67163 138.38 6.92957V5.42005H142V20.8787C142 24.9321 139.172 27.0007 135.41 27.0007C131.677 27.0007 128.962 25.2955 128.424 21.7453H132.073C132.299 23.3387 133.6 24.1774 135.354 24.1774C137.164 24.1774 138.38 23.3108 138.38 20.9347V18.4188C137.39 19.7606 135.976 20.4594 134.222 20.4594ZM135.042 17.4963C137.22 17.4963 138.38 15.819 138.38 12.7441C138.38 9.69705 137.164 7.96388 135.042 7.96388C132.893 7.96388 131.733 9.64114 131.733 12.7441C131.733 15.7911 132.893 17.4963 135.042 17.4963Z" fill="white"/>
</svg>
