<svg width="16" height="17" viewBox="0 0 16 17" fill="none" xmlns="http://www.w3.org/2000/svg">
<path fill-rule="evenodd" clip-rule="evenodd" d="M8 12.96C10.4853 12.96 12.5 10.9453 12.5 8.46002C12.5 5.97474 10.4853 3.96002 8 3.96002C5.51472 3.96002 3.5 5.97474 3.5 8.46002C3.5 10.9453 5.51472 12.96 8 12.96ZM8 14.46C11.3137 14.46 14 11.7737 14 8.46002C14 5.14631 11.3137 2.46002 8 2.46002C4.68629 2.46002 2 5.14631 2 8.46002C2 11.7737 4.68629 14.46 8 14.46Z" fill="#8C8F94"/>
<path fill-rule="evenodd" clip-rule="evenodd" d="M5.25 8.46002C5.25 8.04581 5.58579 7.71002 6 7.71002H10C10.4142 7.71002 10.75 8.04581 10.75 8.46002C10.75 8.87424 10.4142 9.21002 10 9.21002H6C5.58579 9.21002 5.25 8.87424 5.25 8.46002Z" fill="#8C8F94"/>
</svg>
