<svg width="16" height="17" viewBox="0 0 16 17" fill="none" xmlns="http://www.w3.org/2000/svg">
<path fill-rule="evenodd" clip-rule="evenodd" d="M10.5 11.96V7.15566C10.5 6.42627 10.8971 5.75473 11.5362 5.40323L12.2119 5.03157L11.8872 3.96002H11.1126C10.8771 4.17442 10.5653 4.43576 10.2093 4.67648C9.72222 5.00583 8.9189 5.46002 8 5.46002C7.0811 5.46002 6.27778 5.00583 5.79069 4.67648C5.43467 4.43576 5.12289 4.17442 4.88742 3.96002H4.11281L3.7881 5.03157L4.46384 5.40323C5.10293 5.75473 5.5 6.42627 5.5 7.15566V11.96H10.5ZM3.37094 2.46002C3.15065 2.46002 2.95631 2.60419 2.89243 2.81502L2.11752 5.3722C2.04901 5.59828 2.14808 5.84147 2.35507 5.95531L3.74096 6.71755C3.90073 6.80543 4 6.97331 4 7.15566V12.96C4 13.2362 4.22386 13.46 4.5 13.46H11.5C11.7761 13.46 12 13.2362 12 12.96V7.15566C12 6.97331 12.0993 6.80543 12.259 6.71755L13.6449 5.95531C13.8519 5.84147 13.951 5.59828 13.8825 5.3722L13.1076 2.81502C13.0437 2.60419 12.8494 2.46002 12.6291 2.46002H10.7214C10.5804 2.46002 10.4467 2.51897 10.3468 2.6185C9.95982 3.00414 8.90889 3.96002 8 3.96002C7.09111 3.96002 6.04018 3.00414 5.65319 2.6185C5.5533 2.51897 5.41959 2.46002 5.27857 2.46002H3.37094Z" fill="#8C8F94"/>
<path d="M8.75 7.21002C8.75 7.62424 8.41421 7.96002 8 7.96002C7.58579 7.96002 7.25 7.62424 7.25 7.21002C7.25 6.79581 7.58579 6.46002 8 6.46002C8.41421 6.46002 8.75 6.79581 8.75 7.21002Z" fill="#8C8F94"/>
</svg>
